# xmcd
#
# Track frame offsets: 
#        150
#        16433
#        32153
#        46363
#        61046
#        76647
#        95396
#        109361
#        124436
#        140298
#        158233
#        173344
#        206470
#        223109
#        241865
#        259404
#        275580
#        301221
#        319447
#        335253
#
# Disc length: 4705 seconds
#
# Revision: 0
# Processed by: cddbd v1.5.2PL0 Copyright (c) Steve Scherf et al.
# Submitted via: ExactAudioCopy v1.0b3
#
DISCID=18125f14
DTITLE=Various Artist - Summer Trance Vol. 1 - CD 1
DYEAR=1900
DGENRE=
TTITLE0=Comiccon - Komodo (DDA Radio Mix)
TTITLE1=DJ Dean - Dreamworld
TTITLE2=Topmodelz - Your Love (Single Mix)
TTITLE3=Alex Megane - Tonight (Dub Radio Mix)
TTITLE4=Jordan - Jordan Is Back
TTITLE5=Thomas Bronzwear - Close Horizon (Guiseppe Ottaviani Radio Mix
TTITLE5=)
TTITLE6=Liz Kay - When Love Becomes A Lie (Cascada Radio Mix)
TTITLE7=Kindervater Feat. Nadja - Forever (Radio Edit)
TTITLE8=Eliess - Don´t Stop Till You Get Enough (Pakito Radio Mix)
TTITLE9=Discotronic - Now Is The Time (Single Edit)
TTITLE10=Pedro Del Mar Feat. Emma Nelson - Feel (DJ Shog Rmx Edit)
TTITLE11=FKN Feat. Jahala - Why? (Original Mix)
TTITLE12=Ceoma Feat. The Larx - Full Moon (Club Radio Edit)
TTITLE13=Denga and Manus - Loosing Sences (Vocal Radio Mix)
TTITLE14=Alex Bartlett and Andy Guess - Universe Inside (Talla 2XLC Remi
TTITLE14=x)
TTITLE15=DT8 Project - Hold Till The End (Ronski Speed Radio Mix)
TTITLE16=Above and Beyond - Good For Me (Album Version)
TTITLE17=Duderstadt and Anita Kelsey - Smile (Duende Dub Radio Mix)
TTITLE18=Cressida and Store´n Forward - Why Don´t You Talk About Me
TTITLE19=Plastic Angel - Call The Galaxy Taxi
EXTD=
EXTT0=
EXTT1=
EXTT2=
EXTT3=
EXTT4=
EXTT5=
EXTT6=
EXTT7=
EXTT8=
EXTT9=
EXTT10=
EXTT11=
EXTT12=
EXTT13=
EXTT14=
EXTT15=
EXTT16=
EXTT17=
EXTT18=
EXTT19=
PLAYORDER=
